<svg width="20" height="21" viewBox="0 0 20 21" fill="none" xmlns="http://www.w3.org/2000/svg">
<path fill-rule="evenodd" clip-rule="evenodd" d="M9.9999 20.5C12.546 20.5 14.9878 19.4464 16.7881 17.5711C18.5885 15.6957 19.5999 13.1522 19.5999 10.5C19.5999 7.84784 18.5885 5.3043 16.7881 3.42893C14.9878 1.55357 12.546 0.5 9.9999 0.5C7.45382 0.5 5.01203 1.55357 3.21168 3.42893C1.41133 5.3043 0.399902 7.84784 0.399902 10.5C0.399902 13.1522 1.41133 15.6957 3.21168 17.5711C5.01203 19.4464 7.45382 20.5 9.9999 20.5ZM11.1999 6.75C11.1999 6.41848 11.0735 6.10054 10.8484 5.86612C10.6234 5.6317 10.3182 5.5 9.9999 5.5C9.68164 5.5 9.37642 5.6317 9.15137 5.86612C8.92633 6.10054 8.7999 6.41848 8.7999 6.75V9.25H6.3999C6.08164 9.25 5.77642 9.3817 5.55137 9.61612C5.32633 9.85054 5.1999 10.1685 5.1999 10.5C5.1999 10.8315 5.32633 11.1495 5.55137 11.3839C5.77642 11.6183 6.08164 11.75 6.3999 11.75H8.7999V14.25C8.7999 14.5815 8.92633 14.8995 9.15137 15.1339C9.37642 15.3683 9.68164 15.5 9.9999 15.5C10.3182 15.5 10.6234 15.3683 10.8484 15.1339C11.0735 14.8995 11.1999 14.5815 11.1999 14.25V11.75H13.5999C13.9182 11.75 14.2234 11.6183 14.4484 11.3839C14.6735 11.1495 14.7999 10.8315 14.7999 10.5C14.7999 10.1685 14.6735 9.85054 14.4484 9.61612C14.2234 9.3817 13.9182 9.25 13.5999 9.25H11.1999V6.75Z" fill="#0066FF"/>
</svg>
