<svg width="21" height="21" viewBox="0 0 21 21" fill="none" xmlns="http://www.w3.org/2000/svg">
<path fill-rule="evenodd" clip-rule="evenodd" d="M10.5 20.5C13.1522 20.5 15.6957 19.4464 17.5711 17.5711C19.4464 15.6957 20.5 13.1522 20.5 10.5C20.5 7.84784 19.4464 5.3043 17.5711 3.42893C15.6957 1.55357 13.1522 0.5 10.5 0.5C7.84784 0.5 5.3043 1.55357 3.42893 3.42893C1.55357 5.3043 0.5 7.84784 0.5 10.5C0.5 13.1522 1.55357 15.6957 3.42893 17.5711C5.3043 19.4464 7.84784 20.5 10.5 20.5ZM6.75 9.25C6.41848 9.25 6.10054 9.3817 5.86612 9.61612C5.6317 9.85054 5.5 10.1685 5.5 10.5C5.5 10.8315 5.6317 11.1495 5.86612 11.3839C6.10054 11.6183 6.41848 11.75 6.75 11.75H14.25C14.5815 11.75 14.8995 11.6183 15.1339 11.3839C15.3683 11.1495 15.5 10.8315 15.5 10.5C15.5 10.1685 15.3683 9.85054 15.1339 9.61612C14.8995 9.3817 14.5815 9.25 14.25 9.25H6.75Z" fill="#EF5123"/>
</svg>
